<svg width="4" height="12" viewBox="0 0 4 12" fill="none" xmlns="http://www.w3.org/2000/svg">
<path d="M1.99992 0.75C1.35825 0.75 0.833252 1.275 0.833252 1.91667C0.833252 2.55833 1.35825 3.08333 1.99992 3.08333C2.64159 3.08333 3.16659 2.55833 3.16659 1.91667C3.16659 1.275 2.64159 0.75 1.99992 0.75ZM1.99992 8.91667C1.35825 8.91667 0.833252 9.44167 0.833252 10.0833C0.833252 10.725 1.35825 11.25 1.99992 11.25C2.64159 11.25 3.16659 10.725 3.16659 10.0833C3.16659 9.44167 2.64159 8.91667 1.99992 8.91667ZM1.99992 4.83333C1.35825 4.83333 0.833252 5.35833 0.833252 6C0.833252 6.64167 1.35825 7.16667 1.99992 7.16667C2.64159 7.16667 3.16659 6.64167 3.16659 6C3.16659 5.35833 2.64159 4.83333 1.99992 4.83333Z" fill="black"/>
</svg>
