<svg width="16" height="16" viewBox="0 0 16 16" fill="none" xmlns="http://www.w3.org/2000/svg">
<path d="M15.8533 15.1413L10.995 10.2532C11.9005 9.16875 12.4463 7.7735 12.4463 6.25C12.4463 2.79825 9.64804 0 6.19629 0C2.74454 0 -0.0537109 2.79825 -0.0537109 6.25C-0.0537109 9.70175 2.74454 12.5 6.19629 12.5C7.76454 12.5 9.19704 11.921 10.2945 10.9665L15.146 15.8485C15.3413 16.0438 15.6581 16.0438 15.8533 15.8485C16.0483 15.6532 16.0483 15.3367 15.8533 15.1413H15.8533ZM6.19629 11.5082C3.29229 11.5082 0.938039 9.154 0.938039 6.25C0.938039 3.346 3.29229 0.99175 6.19629 0.99175C9.10029 0.99175 11.4545 3.346 11.4545 6.25C11.4545 9.154 9.10029 11.5082 6.19629 11.5082Z" fill="#535353"/>
</svg>
