<svg width="20" height="20" viewBox="0 0 20 20" fill="none" xmlns="http://www.w3.org/2000/svg">
<path fill-rule="evenodd" clip-rule="evenodd" d="M0.286255 10.0001C0.286255 7.42387 1.30966 4.95314 3.13134 3.13146C4.95302 1.30979 7.42375 0.286377 9.99999 0.286377C12.5762 0.286377 15.047 1.30979 16.8686 3.13146C18.6903 4.95314 19.7137 7.42387 19.7137 10.0001C19.7137 12.5764 18.6903 15.0471 16.8686 16.8688C15.047 18.6904 12.5762 19.7138 9.99999 19.7138C7.42375 19.7138 4.95302 18.6904 3.13134 16.8688C1.30966 15.0471 0.286255 12.5764 0.286255 10.0001ZM9.99999 1.67971C8.38727 1.67977 6.80932 2.1485 5.4581 3.0289C4.10689 3.9093 3.04066 5.16341 2.38912 6.63866C1.73758 8.11391 1.52881 9.74672 1.78822 11.3384C2.04762 12.9302 2.76402 14.4122 3.85025 15.6042C4.50971 14.5713 5.41888 13.7213 6.49375 13.1327C7.56863 12.5442 8.77452 12.236 9.99999 12.2368C11.2255 12.2359 12.4314 12.544 13.5063 13.1326C14.5812 13.7211 15.4904 14.5712 16.1497 15.6042C17.236 14.4122 17.9524 12.9302 18.2118 11.3384C18.4712 9.74672 18.2624 8.11391 17.6109 6.63866C16.9593 5.16341 15.8931 3.9093 14.5419 3.0289C13.1907 2.1485 11.6127 1.67977 9.99999 1.67971ZM15.1069 16.5693C14.5879 15.6748 13.8429 14.9324 12.9466 14.4166C12.0503 13.9007 11.0341 13.6295 9.99999 13.6301C8.96583 13.6295 7.94968 13.9007 7.05336 14.4166C6.15705 14.9324 5.41206 15.6748 4.89306 16.5693C6.35204 17.707 8.14988 18.3235 9.99999 18.3205C11.9243 18.3205 13.696 17.6664 15.1069 16.5693ZM6.55332 8.54078C6.55332 7.62666 6.91645 6.74999 7.56283 6.10362C8.2092 5.45724 9.08588 5.09411 9.99999 5.09411C10.9141 5.09411 11.7908 5.45724 12.4372 6.10362C13.0835 6.74999 13.4467 7.62666 13.4467 8.54078C13.4467 9.45489 13.0835 10.3316 12.4372 10.9779C11.7908 11.6243 10.9141 11.9874 9.99999 11.9874C9.08588 11.9874 8.2092 11.6243 7.56283 10.9779C6.91645 10.3316 6.55332 9.45489 6.55332 8.54078ZM9.99999 6.48744C9.73034 6.48744 9.46333 6.54056 9.21421 6.64374C8.96509 6.74693 8.73873 6.89818 8.54806 7.08885C8.35739 7.27952 8.20615 7.50588 8.10296 7.755C7.99977 8.00412 7.94666 8.27113 7.94666 8.54078C7.94666 8.81042 7.99977 9.07743 8.10296 9.32655C8.20615 9.57568 8.35739 9.80203 8.54806 9.9927C8.73873 10.1834 8.96509 10.3346 9.21421 10.4378C9.46333 10.541 9.73034 10.5941 9.99999 10.5941C10.5446 10.5941 11.0668 10.3778 11.4519 9.9927C11.837 9.60763 12.0533 9.08536 12.0533 8.54078C12.0533 7.9962 11.837 7.47393 11.4519 7.08885C11.0668 6.70378 10.5446 6.48744 9.99999 6.48744Z" fill="white"/>
</svg>
