<svg width="12" height="13" viewBox="0 0 12 13" fill="none" xmlns="http://www.w3.org/2000/svg">
<path d="M11 1.25H9.25V0.5C9.25 0.433696 9.22366 0.370107 9.17678 0.323223C9.12989 0.276339 9.0663 0.25 9 0.25C8.9337 0.25 8.87011 0.276339 8.82322 0.323223C8.77634 0.370107 8.75 0.433696 8.75 0.5V1.25H3.25V0.5C3.25 0.433696 3.22366 0.370107 3.17678 0.323223C3.12989 0.276339 3.0663 0.25 3 0.25C2.9337 0.25 2.87011 0.276339 2.82322 0.323223C2.77634 0.370107 2.75 0.433696 2.75 0.5V1.25H1C0.801088 1.25 0.610322 1.32902 0.46967 1.46967C0.329018 1.61032 0.25 1.80109 0.25 2V12C0.25 12.1989 0.329018 12.3897 0.46967 12.5303C0.610322 12.671 0.801088 12.75 1 12.75H11C11.1989 12.75 11.3897 12.671 11.5303 12.5303C11.671 12.3897 11.75 12.1989 11.75 12V2C11.75 1.80109 11.671 1.61032 11.5303 1.46967C11.3897 1.32902 11.1989 1.25 11 1.25ZM1 1.75H2.75V2.5C2.75 2.5663 2.77634 2.62989 2.82322 2.67678C2.87011 2.72366 2.9337 2.75 3 2.75C3.0663 2.75 3.12989 2.72366 3.17678 2.67678C3.22366 2.62989 3.25 2.5663 3.25 2.5V1.75H8.75V2.5C8.75 2.5663 8.77634 2.62989 8.82322 2.67678C8.87011 2.72366 8.9337 2.75 9 2.75C9.0663 2.75 9.12989 2.72366 9.17678 2.67678C9.22366 2.62989 9.25 2.5663 9.25 2.5V1.75H11C11.0663 1.75 11.1299 1.77634 11.1768 1.82322C11.2237 1.87011 11.25 1.9337 11.25 2V4.25H0.75V2C0.75 1.9337 0.776339 1.87011 0.823223 1.82322C0.870107 1.77634 0.933696 1.75 1 1.75ZM11 12.25H1C0.933696 12.25 0.870107 12.2237 0.823223 12.1768C0.776339 12.1299 0.75 12.0663 0.75 12V4.75H11.25V12C11.25 12.0663 11.2237 12.1299 11.1768 12.1768C11.1299 12.2237 11.0663 12.25 11 12.25ZM4.75 6.5V10.5C4.75 10.5663 4.72366 10.6299 4.67678 10.6768C4.62989 10.7237 4.5663 10.75 4.5 10.75C4.4337 10.75 4.37011 10.7237 4.32322 10.6768C4.27634 10.6299 4.25 10.5663 4.25 10.5V6.90438L3.61188 7.22375C3.55253 7.25342 3.48383 7.2583 3.42089 7.23732C3.35795 7.21634 3.30592 7.17122 3.27625 7.11187C3.24658 7.05253 3.2417 6.98383 3.26268 6.92089C3.28366 6.85795 3.32878 6.80592 3.38812 6.77625L4.38812 6.27625C4.42625 6.25717 4.46863 6.24816 4.51122 6.25007C4.55381 6.25199 4.59521 6.26476 4.63147 6.28718C4.66774 6.30961 4.69767 6.34093 4.71841 6.37818C4.73916 6.41543 4.75003 6.45736 4.75 6.5ZM8.5 8.25L7 10.25H8.5C8.5663 10.25 8.62989 10.2763 8.67678 10.3232C8.72366 10.3701 8.75 10.4337 8.75 10.5C8.75 10.5663 8.72366 10.6299 8.67678 10.6768C8.62989 10.7237 8.5663 10.75 8.5 10.75H6.5C6.45357 10.75 6.40806 10.7371 6.36857 10.7127C6.32907 10.6883 6.29716 10.6533 6.27639 10.6118C6.25563 10.5703 6.24684 10.5238 6.25101 10.4775C6.25518 10.4313 6.27214 10.3871 6.3 10.35L8.09875 7.95187C8.19744 7.82196 8.2506 7.66315 8.25 7.5C8.25018 7.33475 8.19578 7.17406 8.09525 7.0429C7.99472 6.91174 7.85368 6.81746 7.69405 6.7747C7.53443 6.73195 7.36515 6.74311 7.21251 6.80645C7.05988 6.8698 6.93244 6.98178 6.85 7.125C6.81541 7.17942 6.76113 7.21836 6.6985 7.2337C6.63587 7.24904 6.56974 7.23959 6.51391 7.20732C6.45809 7.17505 6.41689 7.12246 6.39892 7.06054C6.38096 6.99861 6.38761 6.93214 6.4175 6.875C6.55509 6.63671 6.76746 6.45048 7.02168 6.34519C7.27589 6.2399 7.55775 6.22143 7.82353 6.29265C8.08931 6.36387 8.32417 6.52079 8.49168 6.73908C8.65919 6.95738 8.74999 7.22484 8.75 7.5C8.75096 7.77062 8.66314 8.03408 8.5 8.25Z" fill="black"/>
</svg>
