<svg width="16" height="16" viewBox="0 0 16 16" fill="none" xmlns="http://www.w3.org/2000/svg">
<path d="M9.79036 7.17495L4.25586 6.19995V13.4045C4.25593 13.4827 4.27141 13.5602 4.30142 13.6325C4.33143 13.7048 4.37539 13.7704 4.43078 13.8257C4.48617 13.881 4.55191 13.9249 4.62424 13.9548C4.69658 13.9847 4.77409 14 4.85236 14H14.4024C14.4807 14.0001 14.5583 13.9849 14.6308 13.9551C14.7032 13.9252 14.7691 13.8814 14.8246 13.8261C14.8801 13.7708 14.9241 13.7051 14.9542 13.6327C14.9843 13.5604 14.9998 13.4828 14.9999 13.4045V10.75L9.79036 7.17495Z" fill="#185C37"/>
<path d="M9.79036 1H4.85236C4.77409 0.999935 4.69658 1.01529 4.62424 1.04518C4.55191 1.07507 4.48617 1.11891 4.43078 1.17421C4.37539 1.22951 4.33143 1.29517 4.30142 1.36746C4.27141 1.43974 4.25593 1.51723 4.25586 1.5955V4.25L9.79036 7.5L12.7209 8.475L14.9999 7.5V4.25L9.79036 1Z" fill="#21A366"/>
<path d="M4.25586 4.25H9.79036V7.5H4.25586V4.25Z" fill="#107C41"/>
<path opacity="0.1" d="M8.21686 4.09998H4.25586V12.225H8.21686C8.37469 12.2242 8.52586 12.1612 8.63761 12.0498C8.74935 11.9383 8.81268 11.7873 8.81386 11.6295V4.69548C8.81268 4.53764 8.74935 4.38664 8.63761 4.27517C8.52586 4.16371 8.37469 4.10076 8.21686 4.09998Z" fill="black"/>
<path opacity="0.2" d="M7.89136 4.42505H4.25586V12.55H7.89136C8.04919 12.5493 8.20036 12.4863 8.31211 12.3749C8.42385 12.2634 8.48718 12.1124 8.48836 11.9545V5.02055C8.48718 4.86272 8.42385 4.71171 8.31211 4.60024C8.20036 4.48878 8.04919 4.42583 7.89136 4.42505Z" fill="black"/>
<path opacity="0.2" d="M7.89136 4.42505H4.25586V11.9H7.89136C8.04919 11.8993 8.20036 11.8363 8.31211 11.7249C8.42385 11.6134 8.48718 11.4624 8.48836 11.3045V5.02055C8.48718 4.86272 8.42385 4.71171 8.31211 4.60024C8.20036 4.48878 8.04919 4.42583 7.89136 4.42505Z" fill="black"/>
<path opacity="0.2" d="M7.56586 4.42505H4.25586V11.9H7.56586C7.72369 11.8993 7.87486 11.8363 7.98661 11.7249C8.09835 11.6134 8.16168 11.4624 8.16286 11.3045V5.02055C8.16168 4.86272 8.09835 4.71171 7.98661 4.60024C7.87486 4.48878 7.72369 4.42583 7.56586 4.42505Z" fill="black"/>
<path d="M1.597 3.92505H7.566C7.72411 3.92492 7.87581 3.98757 7.98776 4.09923C8.0997 4.21089 8.16273 4.36243 8.163 4.52055V10.4795C8.16273 10.6377 8.0997 10.7892 7.98776 10.9009C7.87581 11.0125 7.72411 11.0752 7.566 11.075H1.597C1.51869 11.0752 1.44112 11.0599 1.36873 11.03C1.29634 11.0002 1.23054 10.9563 1.17509 10.901C1.11965 10.8457 1.07565 10.78 1.04561 10.7077C1.01556 10.6354 1.00007 10.5579 1 10.4795V4.52055C1.00007 4.44224 1.01556 4.36471 1.04561 4.29239C1.07565 4.22008 1.11965 4.15439 1.17509 4.09908C1.23054 4.04378 1.29634 3.99994 1.36873 3.97008C1.44112 3.94022 1.51869 3.92492 1.597 3.92505Z" fill="url(#paint0_linear_6026_4714)"/>
<path d="M2.84961 9.43648L4.10511 7.49448L2.95511 5.56348H3.87861L4.50611 6.79998C4.56411 6.91698 4.60611 7.00398 4.62511 7.06198H4.63361C4.67461 6.96798 4.71811 6.87748 4.76361 6.78898L5.43461 5.56548H6.28461L5.10511 7.48548L6.31461 9.43798H5.41011L4.68511 8.08248C4.65145 8.0242 4.62284 7.96314 4.59961 7.89998H4.58761C4.56647 7.96152 4.53828 8.02041 4.50361 8.07548L3.75711 9.43648H2.84961Z" fill="white"/>
<path d="M14.4025 1H9.79004V4.25H14.9995V1.5955C14.9995 1.51719 14.984 1.43966 14.9539 1.36734C14.9239 1.29503 14.8799 1.22934 14.8244 1.17403C14.769 1.11873 14.7032 1.0749 14.6308 1.04503C14.5584 1.01517 14.4808 0.999869 14.4025 1Z" fill="#33C481"/>
<path d="M9.79004 8H14.9995V11.25H9.79004V8Z" fill="#107C41"/>
<defs>
<linearGradient id="paint0_linear_6026_4714" x1="2.247" y1="3.45705" x2="6.916" y2="11.543" gradientUnits="userSpaceOnUse">
<stop stop-color="#18884F"/>
<stop offset="0.5" stop-color="#117E43"/>
<stop offset="1" stop-color="#0B6631"/>
</linearGradient>
</defs>
</svg>
