<svg width="19" height="19" viewBox="0 0 19 19" fill="none" xmlns="http://www.w3.org/2000/svg">
<path d="M6.54551 2.88096C6.52598 2.71982 6.32822 2.65146 6.21348 2.76621L5.14658 3.83311L1.88242 0.571387C1.84571 0.535039 1.79614 0.514648 1.74448 0.514648C1.69282 0.514648 1.64325 0.535039 1.60654 0.571387L0.571387 1.6041C0.535039 1.64081 0.514648 1.69038 0.514648 1.74204C0.514648 1.7937 0.535039 1.84327 0.571387 1.87998L3.83555 5.14414L2.76377 6.21592C2.73795 6.24186 2.71994 6.27453 2.71177 6.31021C2.7036 6.34588 2.7056 6.38314 2.71756 6.41773C2.72951 6.45232 2.75094 6.48287 2.77939 6.50589C2.80785 6.52891 2.84219 6.54348 2.87852 6.54795L6.78965 7.00937C6.91416 7.02402 7.02158 6.91904 7.00693 6.79209L6.54551 2.88096ZM6.79209 11.9923L2.87852 12.4537C2.71738 12.4732 2.64902 12.671 2.76377 12.7857L3.83555 13.8575L0.571387 17.1168C0.535039 17.1535 0.514648 17.2031 0.514648 17.2547C0.514648 17.3064 0.535039 17.356 0.571387 17.3927L1.60654 18.4254C1.68223 18.5011 1.80674 18.5011 1.88242 18.4254L5.14658 15.1637L6.21348 16.2306C6.23942 16.2564 6.27209 16.2744 6.30777 16.2826C6.34344 16.2907 6.3807 16.2887 6.41529 16.2768C6.44988 16.2648 6.48043 16.2434 6.50345 16.2149C6.52647 16.1865 6.54104 16.1521 6.54551 16.1158L7.00693 12.2071C7.02158 12.0826 6.9166 11.9776 6.79209 11.9923ZM12.2071 7.00693L16.1207 6.54551C16.2818 6.52598 16.3502 6.32822 16.2354 6.21348L15.1637 5.14414L18.4278 1.88242C18.5035 1.80674 18.5035 1.68223 18.4278 1.60654L17.3927 0.573828C17.356 0.53748 17.3064 0.51709 17.2547 0.51709C17.2031 0.51709 17.1535 0.53748 17.1168 0.573828L13.8526 3.83311L12.7857 2.76621C12.7598 2.74039 12.7271 2.72238 12.6915 2.71421C12.6558 2.70604 12.6185 2.70805 12.5839 2.72C12.5493 2.73196 12.5188 2.75338 12.4958 2.78183C12.4728 2.81029 12.4582 2.84463 12.4537 2.88096L11.9923 6.78965C11.9776 6.9166 12.0826 7.02158 12.2071 7.00693ZM15.1637 13.8551L16.2354 12.7833C16.2613 12.7574 16.2793 12.7247 16.2875 12.689C16.2956 12.6533 16.2936 12.6161 16.2817 12.5815C16.2697 12.5469 16.2483 12.5164 16.2198 12.4933C16.1914 12.4703 16.157 12.4557 16.1207 12.4513L12.2096 11.9898C12.0851 11.9752 11.9776 12.0802 11.9923 12.2071L12.4537 16.1183C12.4732 16.2794 12.671 16.3478 12.7857 16.233L13.8526 15.1661L17.1168 18.4278C17.1925 18.5035 17.317 18.5035 17.3927 18.4278L18.4278 17.3951C18.5035 17.3194 18.5035 17.1949 18.4278 17.1192L15.1637 13.8551Z" fill="black"/>
</svg>
