<svg width="12" height="12" viewBox="0 0 12 12" fill="none" xmlns="http://www.w3.org/2000/svg">
<path d="M6.43822 9.19155C6.52021 9.27359 6.56626 9.38482 6.56626 9.50081C6.56626 9.61679 6.52021 9.72803 6.43822 9.81006L5.89463 10.3569C5.31976 10.9314 4.54022 11.2541 3.72749 11.2538C2.91476 11.2535 2.13542 10.9304 1.56092 10.3556C0.986415 9.78071 0.663806 9.00116 0.664063 8.18843C0.664319 7.3757 0.98742 6.59637 1.56229 6.02186L2.88135 4.7028C3.43352 4.15018 4.176 3.82948 4.95686 3.8063C5.73772 3.78312 6.49792 4.05922 7.0819 4.57811C7.12499 4.61632 7.16013 4.66264 7.18532 4.71443C7.21051 4.76621 7.22525 4.82245 7.2287 4.87994C7.23216 4.93743 7.22425 4.99503 7.20544 5.04946C7.18664 5.10389 7.15729 5.15408 7.11908 5.19717C7.08088 5.24026 7.03456 5.27541 6.98277 5.3006C6.93098 5.32578 6.87474 5.34053 6.81725 5.34398C6.75977 5.34743 6.70217 5.33953 6.64774 5.32072C6.59331 5.30191 6.54311 5.27257 6.50002 5.23436C6.08293 4.86397 5.54009 4.6669 4.98252 4.68347C4.42495 4.70004 3.89477 4.92899 3.50041 5.3235L2.18135 6.64092C1.77103 7.05124 1.54052 7.60775 1.54052 8.18803C1.54052 8.76831 1.77103 9.32482 2.18135 9.73514C2.59167 10.1455 3.14818 10.376 3.72846 10.376C4.30874 10.376 4.86525 10.1455 5.27557 9.73514L5.81916 9.19155C5.85979 9.15087 5.90805 9.1186 5.96116 9.09658C6.01427 9.07457 6.0712 9.06324 6.12869 9.06324C6.18619 9.06324 6.24312 9.07457 6.29623 9.09658C6.34934 9.1186 6.39759 9.15087 6.43822 9.19155ZM10.2707 1.64467C9.69577 1.07101 8.91675 0.74884 8.10455 0.74884C7.29236 0.74884 6.51333 1.07101 5.93838 1.64467L5.39479 2.18881C5.31277 2.27091 5.26672 2.38222 5.26677 2.49827C5.26682 2.61431 5.31297 2.72558 5.39506 2.8076C5.47715 2.88962 5.58847 2.93567 5.70451 2.93562C5.82056 2.93557 5.93183 2.88942 6.01385 2.80733L6.55744 2.26374C6.96776 1.85342 7.52427 1.6229 8.10455 1.6229C8.68483 1.6229 9.24134 1.85342 9.65166 2.26374C10.062 2.67406 10.2925 3.23057 10.2925 3.81085C10.2925 4.39112 10.062 4.94764 9.65166 5.35796L8.3326 6.67811C7.93802 7.07239 7.40773 7.30104 6.85016 7.31731C6.2926 7.33357 5.74988 7.13622 5.33299 6.76561C5.24597 6.68845 5.13185 6.64902 5.01576 6.65599C4.89966 6.66297 4.79109 6.71577 4.71393 6.8028C4.63677 6.88982 4.59734 7.00393 4.60431 7.12003C4.61128 7.23613 4.66409 7.3447 4.75112 7.42186C5.33496 7.94089 6.09508 8.21719 6.87593 8.19421C7.65679 8.17124 8.39935 7.85073 8.95166 7.29827L10.2707 5.97921C10.8447 5.40421 11.1671 4.62495 11.1671 3.81249C11.1671 3.00003 10.8447 2.22076 10.2707 1.64577V1.64467Z" fill="#4D9FDB"/>
</svg>
